inDegrees=no
num_controls=7
num_derivatives=13
num_iterations=112
num_multipliers=7
num_parameters=0
num_slacks=7
num_states=26
objective=0.453861
objective_accelerations=0.048387
objective_balance=0.000942
objective_effort=0.037860
objective_height=0.360700
objective_ligament=0.005972
solver_duration=1272.588317
status=Solve_Succeeded
success=true
DataType=double
version=3
OpenSimVersion=4.5
endheader
time	/jointset/ground_pelvis/pelvis_tilt/value	/jointset/ground_pelvis/pelvis_tx/value	/jointset/ground_pelvis/pelvis_ty/value	/jointset/hip_r/hip_flexion_r/value	/jointset/hip_r/hip_adduction_r/value	/jointset/hip_r/hip_rotation_r/value	/jointset/back/lumbar_extension/value	/jointset/patellofemoral_r/patellar_flexion_r/value	/jointset/knee_r/knee_flexion_r/value	/jointset/knee_r/knee_adduction_r/value	/jointset/knee_r/knee_rotation_r/value	/jointset/ankle_r/ankle_angle_r/value	/jointset/subtalar_r/subtalar_angle_r/value	/jointset/ground_pelvis/pelvis_tilt/speed	/jointset/ground_pelvis/pelvis_tx/speed	/jointset/ground_pelvis/pelvis_ty/speed	/jointset/hip_r/hip_flexion_r/speed	/jointset/hip_r/hip_adduction_r/speed	/jointset/hip_r/hip_rotation_r/speed	/jointset/back/lumbar_extension/speed	/jointset/patellofemoral_r/patellar_flexion_r/speed	/jointset/knee_r/knee_flexion_r/speed	/jointset/knee_r/knee_adduction_r/speed	/jointset/knee_r/knee_rotation_r/speed	/jointset/ankle_r/ankle_angle_r/speed	/jointset/subtalar_r/subtalar_angle_r/speed	/forceset/tau_hip_flexion_r	/forceset/tau_hip_adduction_r	/forceset/tau_hip_rotation_r	/forceset/tau_knee_flexion_r	/forceset/tau_ankle_angle_r	/forceset/tau_subtalar_angle_r	/forceset/tau_lumbar_extension	lambda_cid13_p0	lambda_cid14_p0	lambda_cid14_p1	lambda_cid14_p2	lambda_cid14_p3	lambda_cid14_p4	lambda_cid14_p5	/jointset/ground_pelvis/pelvis_tilt/accel	/jointset/ground_pelvis/pelvis_tx/accel	/jointset/ground_pelvis/pelvis_ty/accel	/jointset/hip_r/hip_flexion_r/accel	/jointset/hip_r/hip_adduction_r/accel	/jointset/hip_r/hip_rotation_r/accel	/jointset/back/lumbar_extension/accel	/jointset/patellofemoral_r/patellar_flexion_r/accel	/jointset/knee_r/knee_flexion_r/accel	/jointset/knee_r/knee_adduction_r/accel	/jointset/knee_r/knee_rotation_r/accel	/jointset/ankle_r/ankle_angle_r/accel	/jointset/subtalar_r/subtalar_angle_r/accel	gamma_cid13_p0	gamma_cid14_p0	gamma_cid14_p1	gamma_cid14_p2	gamma_cid14_p3	gamma_cid14_p4	gamma_cid14_p5
0	-0.002403012886485021	0.1291785159720634	0.9340265813453306	0.1934211968871041	-0.2204468070472488	-0.2416505376920367	-0.2903787966825928	0.2311786273363385	0.2311786273363406	0.1156816038637083	0.168668060192316	0.089344008118978	0.07346357672537897	0	0	0	0	0	0	0	0	0	0	0	0	0	0.1028189981906261	-0.02989394586909754	0.001424665673436421	-0.2312219713521594	0.1098261538080434	-0.08974896466400037	-0.02479247782134021	-29.74400157162916	-11.28553156593332	-36.47058047366762	1.115209363426428	5.86839303841841	-608.8283738529369	31.89034685463373	-1.785632212214018	-1.885701666545124	-0.8670208849062463	9.935775136827955	-0.1351975740220749	2.216682649374237	-6.247884762677406	10.2912003981942	10.29120039819421	-2.411342853232249	0.4302932058269783	2.748547949795502	0.6226319071847742	3.932287700656849e-08	2.86202333803486e-08	-2.831668404402521e-07	2.094408866256689e-07	4.146890896968374e-09	1.619839726352167e-07	-2.414428386142926e-07
0.01	-0.002486645138514219	0.1290863637327938	0.9339844020855965	0.1939041924291497	-0.2204522682393924	-0.2415389759468542	-0.2906929694323989	0.2316834677035061	0.2316834677035123	0.115561050417576	0.1686856240857283	0.08948015835586033	0.07349592589160725	-0.01670344918767753	-0.01824143853347707	-0.008416744194332552	0.09609491282133857	-0.001127109991239569	0.02224573828718527	-0.06244223937408171	0.1005338125096757	0.1005338125096757	-0.02391102321988085	0.00347398183445155	0.02723465891785569	0.006429814608287652	0.1030614525726274	-0.0459307985725201	0.00136959526108433	-0.236713939683796	0.1161339428925264	-0.0789578239783363	-0.02386894330646283	-29.74972081086731	-8.667047936013132	-31.27741131547983	0.2323345729219835	2.270257566702668	-610.3191978210231	43.37683489592985	-1.609253532623327	-1.765012719258122	-0.8261026270368603	9.370720041793199	-0.1067068918475705	2.218571567552855	-6.183546936785629	9.869324674131031	9.869324674131008	-2.3510587600577	0.300173195445333	2.711623527049364	0.6471335008511403	4.890008763822627e-08	1.028176060586772e-08	-3.46162552264798e-07	2.269226371395975e-07	2.824101644164627e-08	2.016979028809709e-08	-2.82468703686525e-07
0.02	-0.002736622334533818	0.1288174675536876	0.9338586350958512	0.1953330112368072	-0.2204700483674851	-0.2412069463889652	-0.2916197952583474	0.2331806167951287	0.233180616795129	0.1152073713984981	0.1687367723021184	0.0898887949147758	0.07359136865655841	-0.03326898879851055	-0.03534878796732785	-0.01671754600226958	0.1891646531229306	-0.002463787189382487	0.04409356254085901	-0.1225306152286496	0.1984617448904215	0.1984617448904215	-0.04662511458742635	0.006716864596546275	0.05449726440646201	0.01261871974458941	0.1033039069545938	-0.06196765127595021	0.001314524848703088	-0.242205908015449	0.1224417319770018	-0.06816668329268311	-0.02294540879160514	-29.76641261288443	-5.968918067430848	-26.08686968497982	-0.6311896189752854	-1.305181236039372	-610.5416834095615	54.60666247783108	-1.758050296845145	-1.65888384661985	-0.8438324076271427	9.33074063287865	-0.1771110154027442	2.137099842671933	-5.77711205877466	9.770024372408221	9.770024372408233	-2.17195648276518	0.3840733913556088	2.754137263945642	0.5744500127876009	5.847729826988404e-08	-8.056712168613163e-09	-4.091582640893438e-07	2.44404387653526e-07	5.233514198632416e-08	-1.216443920590225e-07	-3.234945687587574e-07
0.03	-0.003151408631678892	0.128381955071539	0.9336502073616475	0.1976786333602527	-0.2205021064227066	-0.24065950979653	-0.2931351603895614	0.2356437809951695	0.2356437809951702	0.114632392016706	0.1688199868357199	0.09056848552553645	0.07374718433032561	-0.0496114636920642	-0.0516852260556399	-0.02496490480672995	0.2795336773479171	-0.003948589048109619	0.06530093311767705	-0.1801340158240435	0.2936956699280173	0.2936956699280169	-0.06821771954968621	0.009872112386710086	0.0812790680071189	0.01849854579986097	0.09743554496574816	-0.05999924950988834	0.001755114298247317	-0.2358719246408032	0.1136568296373831	-0.06567052251405191	-0.01814511755334106	-29.79333667358352	-8.659089113911801	-25.34420856633202	-0.897633835914125	0.03810620437636797	-610.996357543488	55.10987452554355	-1.560820584792741	-1.61074086450801	-0.8147481139622286	8.826070835555017	-0.1342903943091542	2.098684709822148	-5.690694781475823	9.328751056853092	9.328751056853008	-2.129996316954975	0.2732107516604976	2.615939865347487	0.5878337110901092	6.618040160355916e-08	-1.636323249597216e-08	-4.51310616538296e-07	2.529550099833318e-07	6.433945273951697e-08	-2.152338648919274e-07	-3.422488908567654e-07
